PathFileType	4	(X/Y/Z)	C:\Users\°ÂÌØÂü\Desktop\20210112\bx_y_10_901-Unnamed.trc
DataRate	CameraRate	NumFrames	NumMarkers	Units	OrigDataRate	OrigDataStartFrame	OrigNumFrames
50.00	50.00	       8	0	mm	50.00	464	       530
Frame#	Time	
		

464	9.260	-724.77808	76.74137	1849.04175	-691.52643	-60.53035	721.49402	-585.33185	-9.29857	805.37061	-665.63873	297.99216	161.48836	-685.54724	264.97748	752.25806	-637.97400	269.44504	879.71143	-693.09686	275.82263	1547.37866	-693.04456	-79.52692	1551.08264	-725.40491	239.70892	579.37085	-768.08923	249.81221	505.69122	-517.83838	-72.66636	143.00133	-698.63904	-38.23281	619.44977	-604.05493	19.52930	167.36310	-677.19330	53.18461	159.77824	-711.68243	151.83350	216.21484	-770.99707	223.24240	205.94093	-594.93286	221.29256	172.91516	-882.61884	296.15176	144.59523	-560.49316	259.81696	165.25757	-595.54846	-20.17899	1052.11011	-628.08020	305.40863	162.17151	-528.05817	304.30383	146.49913	-696.41760	71.83824	580.33942	-669.40033	11.32899	521.06781	-768.79150	-11.05925	206.58585	-797.34003	49.12167	173.22826	-797.01257	173.09503	183.92488	-763.79108	-44.84794	488.85941	-560.49707	-38.13094	163.70100	-663.73645	-69.35853	161.78133	-875.99139	-78.70409	141.37393	-793.79993	85.37392	1052.66492	-583.25421	204.77768	817.66663	-715.21143	-35.26067	568.28894	-645.84418	-79.26421	871.03094	-622.10193	-79.53455	157.61081	-673.08020	199.37672	534.24182	-718.03241	243.15709	647.15143	-688.58905	136.90523	575.53845	-675.92755	172.89262	156.97540	-609.05920	91.57017	1433.91150	-584.90302	206.89536	1072.56738				-720.27222	73.41828	217.69489	
465	9.280	-725.05328	77.18730	1849.21155	-692.07983	-60.43974	721.60339	-586.34155	-9.50954	804.98926	-665.47290	297.80844	161.47794	-685.92505	264.88104	752.29480	-638.24426	269.35248	879.94659	-692.64758	275.72812	1547.53467	-693.28241	-79.43169	1551.07275	-725.40491	239.70892	579.37085	-768.15338	249.81721	505.68701	-517.95050	-72.64360	143.14650	-699.22943	-38.03220	619.61230	-604.18677	19.51911	167.28419	-677.37238	52.94537	159.62796	-711.61731	151.84187	216.08775	-771.08972	223.02179	205.80986	-595.02765	221.16348	173.01526	-882.49896	295.95609	144.54916	-560.35864	259.91751	165.14967	-595.83508	-20.13041	1051.99060	-628.20880	305.51813	162.31006	-528.04987	304.39276	146.47350	-696.80634	72.02829	580.50763	-669.83746	11.33986	521.06647	-768.79150	-11.05925	206.58585	-797.61218	48.92009	173.06537	-796.79620	173.49042	183.33669	-764.11749	-45.00468	488.73807	-560.49603	-38.08551	163.91791	-663.78333	-69.25977	161.64117	-876.03320	-78.59757	141.50241	-793.97809	85.40856	1052.87268	-583.25342	204.84229	817.53021	-715.44788	-35.44387	568.37665	-646.29272	-79.70285	871.19348	-621.85236	-79.68989	157.76314	-673.62231	199.17880	533.96222	-718.31848	243.13295	647.06421	-688.89075	136.62518	575.46960	-675.94165	172.66908	157.04433	-609.09906	91.64161	1433.87927	-584.65112	206.68016	1072.33423				-720.45947	73.32508	217.76178	
466	9.300	-725.12415	77.71313	1849.24512	-692.81775	-60.67818	721.63123	-586.51251	-9.66031	805.04779	-665.54987	298.13223	161.45508	-686.14856	265.05957	752.58453	-638.09576	269.37643	879.63672	-692.31982	275.78436	1547.53577	-693.67303	-79.34393	1551.08618	-725.55170	239.58789	579.38007	-768.45837	249.96182	505.78836	-517.96686	-72.17529	142.67041	-699.79742	-37.93767	619.40125	-604.26477	19.70428	167.22537	-677.37238	52.94537	159.62796	-711.48535	151.75871	216.34250	-771.04211	223.31013	205.89301	-594.98755	221.34491	173.06032	-882.59155	296.18640	144.66383	-560.33380	259.78729	165.25255	-595.98376	-20.06195	1051.87842	-628.19617	305.41208	162.17204	-528.20477	304.51352	146.58266	-697.03833	71.82729	580.19470	-670.26276	11.15439	521.28186	-768.85260	-10.99704	206.60620	-797.43799	48.66317	173.25113	-796.74475	173.39322	183.45879	-764.44678	-44.88077	488.59052	-560.57416	-38.12333	163.93607	-663.71515	-69.44874	161.95883	-876.03320	-78.59757	141.50241	-794.08716	85.75095	1053.28943	-583.46674	204.68513	817.44006	-715.62653	-35.35780	568.48077	-646.81323	-79.75536	871.34625	-622.05487	-79.85336	157.88495	-673.85455	198.96774	533.69250	-718.62299	242.90923	647.05518	-688.89075	136.62518	575.46960	-675.84888	172.76036	157.22139	-608.95673	91.59138	1433.99805	-584.37170	206.70677	1072.18616				-720.22949	73.29726	217.79514	
467	9.320	-724.94183	78.14457	1849.50781	-693.63269	-61.17736	721.99548	-587.18811	-9.84709	804.91827	-665.58490	297.96088	161.39348	-686.10480	265.09647	752.44324	-638.22388	269.33267	879.81958	-691.87250	275.95816	1547.55017	-693.82788	-79.19026	1551.22437	-725.77838	239.64507	579.45477	-768.72693	250.19563	505.93066	-518.08813	-72.50974	142.92786	-700.35571	-37.76035	619.08093	-604.13037	19.49202	167.43857	-677.37238	52.94537	159.62796	-711.61731	151.84187	216.08775	-771.07599	223.16858	205.73622	-594.98755	221.34491	173.06032	-882.53766	296.18567	144.65939	-560.39276	259.88010	165.24481	-596.47382	-19.98470	1051.76514	-628.20880	305.51813	162.31006	-528.11969	304.63617	146.75458	-697.48279	71.66562	580.34869	-670.78735	11.35010	521.36768	-769.07379	-11.13984	206.49004	-797.63232	48.70177	173.18053	-797.25659	173.07179	183.83765	-764.79401	-45.02919	488.68747	-560.66742	-38.28400	163.93118	-663.81750	-69.49974	161.73666	-876.13934	-78.71100	141.67271	-793.97974	85.97612	1053.47815	-583.46759	204.62053	817.57648	-716.09033	-34.94943	568.08160	-647.21643	-79.77624	871.16901	-622.20129	-79.58013	157.71318	-673.92352	199.26744	533.78552	-718.77301	243.13412	647.01031	-689.05231	136.44617	575.38428	-675.94165	172.66908	157.04433	-608.93488	91.47321	1434.11816	-584.11853	206.64900	1072.03174				-720.45947	73.32508	217.76178	
468	9.340	-724.76459	78.58937	1849.61279	-693.85590	-61.10863	722.02185	-587.72339	-9.77414	804.85114	-665.68658	298.00836	161.39841	-686.23517	265.29587	752.50012	-638.13776	269.29581	879.66199	-691.44232	276.31622	1547.77087	-693.92743	-79.05261	1551.13892	-725.69525	239.51866	579.31036	-768.93970	250.19928	505.89627	-517.89557	-72.25851	142.78180	-701.23022	-37.76062	619.17517	-604.47290	19.30611	167.41743	-677.37238	52.94537	159.62796	-711.81042	151.80142	216.04408	-771.27020	223.30069	205.71530	-594.99255	221.29753	173.03105	-882.55884	296.08118	144.59036	-560.33380	259.78729	165.25255	-597.01617	-19.85168	1051.76904	-628.31854	305.52652	162.35118	-528.21149	304.33224	146.49052	-697.66101	71.67150	580.49628	-671.19257	11.14773	521.23492	-769.02319	-11.07683	206.53766	-797.72070	48.81835	173.30101	-797.03760	173.16383	183.93704	-765.23975	-45.05331	488.88760	-560.85327	-38.38860	163.78351	-663.67810	-69.58882	161.66344	-876.03320	-78.59757	141.50241	-794.19617	86.35886	1054.08264	-583.50720	204.42139	817.55640	-716.80859	-35.12717	568.06055	-648.05133	-79.75788	870.92664	-622.20978	-79.80830	157.88644	-674.00812	199.02345	533.90350	-719.22607	243.12854	646.84668	-689.49677	136.29625	575.22723	-675.81366	172.65594	157.21155	-608.34760	91.78799	1434.11853	-583.85284	206.57211	1071.88232				-720.41675	73.20406	217.86203	
469	9.360	-724.30133	78.93556	1849.65076	-694.70203	-60.86941	721.58105	-587.94116	-10.27447	804.83331	-665.67310	298.06818	161.14606	-686.11066	265.18393	752.39557	-638.16174	269.40573	879.53668	-690.92419	276.28094	1547.57727	-694.04968	-78.90518	1551.04590	-726.06012	239.81750	579.35284	-769.07422	250.11868	505.79916	-517.82971	-72.29927	142.64651	-701.50604	-38.05191	619.42450	-604.40015	19.30274	167.37085	-677.50476	52.87122	159.48772	-711.78949	151.70609	216.07753	-771.23688	223.14763	205.71191	-595.01056	221.23727	172.96187	-882.54285	296.12125	144.60231	-560.31158	259.74710	165.30807	-597.09973	-20.03567	1051.70642	-628.25513	305.51041	162.24893	-528.11536	304.45233	146.53067	-697.66101	71.67150	580.49628	-671.32294	11.47390	521.34528	-769.08429	-11.01462	206.55800	-797.67804	49.02193	173.10512	-797.09503	173.14207	183.89023	-764.77637	-44.89256	488.20029	-560.93903	-38.48574	163.83337	-663.83325	-69.62141	161.72929	-876.03320	-78.59757	141.50241	-794.09338	86.43991	1054.23840	-583.79041	204.31187	817.02393	-717.44202	-35.25415	568.45795	-648.68579	-79.64631	870.85516	-622.11224	-79.82458	157.89571	-674.60309	198.91003	533.41205	-719.26892	243.11469	646.69324	-689.49677	136.29625	575.22723	-675.92755	172.89262	156.97540	-608.13757	91.94106	1434.03845	-583.77747	206.58720	1071.64258				-720.41675	73.20406	217.86203	
470	9.380	-723.64410	79.63211	1849.71692	-695.17249	-60.52496	721.29443	-588.17920	-10.75369	804.70416	-665.63159	298.01965	161.38051	-686.11066	265.18393	752.39557	-638.12238	269.47916	879.24719	-690.21356	276.52557	1547.11792	-694.02118	-78.60141	1551.00012	-726.35156	240.10913	579.37073	-769.04449	250.18221	505.71112	-518.04138	-72.50408	143.04477	-701.97192	-37.56279	619.16284	-604.41895	19.22966	167.48943	-677.37238	52.94537	159.62796	-711.81897	151.63585	216.00305	-771.19281	223.06383	205.82875	-594.99255	221.29753	173.03105	-882.49469	296.04074	144.63200	-560.40198	259.82153	165.32353	-597.15045	-20.16437	1051.44458	-628.23193	305.55048	162.46136	-528.12360	304.36343	146.55630	-697.92230	71.89819	580.42822	-671.54944	11.54946	521.27307	-768.96271	-10.95631	206.52718	-797.57648	48.97852	173.48570	-797.14789	173.13316	183.79045	-765.45514	-44.71124	488.13336	-560.87897	-38.46230	163.89165	-663.88257	-69.56012	161.89314	-876.02838	-78.54763	141.55200	-794.12958	86.67074	1054.59033	-583.70172	203.88187	816.94147	-717.58112	-35.12516	568.27057	-649.15479	-80.11105	871.48169	-622.20624	-79.81771	157.85429	-674.87830	199.01224	533.69537	-719.39594	243.45670	646.87622	-689.69232	136.35695	575.09271	-675.94165	172.66908	157.04433	-607.78503	92.33984	1434.23254	-583.69159	206.58621	1071.61145				-720.22949	73.29726	217.79514	
471	9.400	-723.07550	80.23911	1849.88318	-695.55981	-60.33637	721.30182	-588.09326	-10.73159	804.54083	-665.64771	298.14328	161.45737	-686.21704	265.36237	752.38147	-637.87714	269.23367	879.37701	-689.84222	276.74396	1547.00989	-693.96454	-78.48131	1551.09534	-726.39246	240.11316	579.27234	-769.34979	250.21495	505.74448	-517.88843	-72.44989	143.03294	-702.59357	-37.34636	619.12341	-604.40326	19.30467	167.50026	-677.37238	52.94537	159.62796	-711.68243	151.83350	216.21484	-771.30017	223.23210	205.94937	-594.96954	221.40515	173.12949	-882.66003	296.11053	144.51537	-560.37299	259.80905	165.18416	-597.33527	-20.36916	1051.35767	-628.12848	305.58911	162.22928	-528.11536	304.45233	146.53067	-698.28619	72.07373	580.39124	-671.50079	11.36161	521.43939	-769.02600	-10.90769	206.52879	-797.56128	49.18715	173.61644	-797.09045	173.15492	183.83727	-765.89911	-44.56502	487.96719	-560.93903	-38.48574	163.83337	-663.81842	-69.51160	161.63834	-876.03320	-78.59757	141.50241	-794.12146	86.67381	1054.76575	-583.58282	203.88515	816.91571	-717.96594	-34.74635	568.05035	-649.43365	-80.23495	871.51563	-622.06915	-79.72081	157.73654	-674.70129	199.04085	533.63806	-719.54456	243.40207	646.84589	-689.69232	136.35695	575.09271	-676.18359	172.91890	156.64091	-607.28656	92.49488	1434.48059	-583.77612	206.30997	1071.32544				-720.45947	73.32508	217.76178	
